<svg width="19" height="16" viewBox="0 0 19 16" fill="none" xmlns="http://www.w3.org/2000/svg">
<path d="M19 1.84615C18.2875 2.21538 17.575 2.33846 16.7438 2.46154C17.575 1.96923 18.1687 1.23077 18.4062 0.246154C17.6937 0.738461 16.8625 0.984615 15.9125 1.23077C15.2 0.492308 14.1312 0 13.0625 0C10.5688 0 8.66875 2.46154 9.2625 4.92308C6.05625 4.8 3.20625 3.2 1.1875 0.738462C0.11875 2.58462 0.7125 4.92308 2.375 6.15385C1.78125 6.15385 1.1875 5.90769 0.59375 5.66154C0.59375 7.50769 1.9 9.23077 3.68125 9.72308C3.0875 9.84615 2.49375 9.96923 1.9 9.84615C2.375 11.4462 3.8 12.6769 5.58125 12.6769C4.15625 13.7846 2.01875 14.4 0 14.1538C1.78125 15.2615 3.8 16 5.9375 16C13.1812 16 17.2187 9.72308 16.9812 3.93846C17.8125 3.44615 18.525 2.70769 19 1.84615Z" fill="white"/>
</svg>
